<?xml version="1.0" encoding="utf-8"?>
<!-- Generator: Adobe Illustrator 23.0.3, SVG Export Plug-In . SVG Version: 6.00 Build 0)  -->
<svg version="1.1" id="Layer_1" xmlns="http://www.w3.org/2000/svg" xmlns:xlink="http://www.w3.org/1999/xlink" x="0px" y="0px"
	 viewBox="0 0 1200 1200" enable-background="new 0 0 1200 1200" xml:space="preserve">
<path fill="#4D4D4D" d="M1150,910.411H50V289.589h1100V910.411z M62.055,898.356h1075.89V301.644H62.055V898.356z M1116.849,877.26
	H83.151V322.74h1033.699V877.26z M95.205,865.206h1009.589V334.795H95.205V865.206z M429.385,542.828h12.755l14.103,37.065
	l14.256-37.065h12.755l-18.459,46.368l18.309,43.966l36.014-90.935h14.706L489.258,648.77h-11.708l-21.155-50.271l-21.311,50.271
	h-11.705l-44.417-106.542h14.556l36.164,90.935l18.156-43.966L429.385,542.828z M558.285,648.77V542.228h13.506V648.77H558.285z
	 M621.308,567.438v81.332h-13.503V542.228h10.501l66.028,82.983v-82.833h13.506V648.77h-11.404L621.308,567.438z M806.179,636.765
	v12.005h-72.329V542.228h70.978v12.005h-57.472v34.513h49.97V600h-49.97v36.765H806.179z M661.781,437.26H538.219v12.055h123.562
	V437.26z M661.781,747.671H538.219v12.055h123.562V747.671z"/>
</svg>
